<svg width="30" height="30" viewBox="0 0 30 30" xmlns="http://www.w3.org/2000/svg">
  <path d="M15 3.5C15 3.5 20 10 21 14.5C22 19 20.5 24 16 27" stroke="#b16286" stroke-width="2" fill="none" stroke-linecap="round" stroke-linejoin="round"/>
  <path d="M15 3.5C15 3.5 10 10 9 14.5C8 19 9.5 24 14 27" stroke="#b16286" stroke-width="2" fill="none" stroke-linecap="round" stroke-linejoin="round"/>
  <path d="M6 9.5C6 9.5 3 13.5 2 17C1 20.5 3 24.5 6 26.5" stroke="#b16286" stroke-width="2" fill="none" stroke-linecap="round" stroke-linejoin="round"/>
  <path d="M24 9.5C24 9.5 27 13.5 28 17C29 20.5 27 24.5 24 26.5" stroke="#b16286" stroke-width="2" fill="none" stroke-linecap="round" stroke-linejoin="round"/>
  <line x1="15" y1="27" x2="15" y2="28.5" stroke="#b16286" stroke-width="2" stroke-linecap="round"/>
  <line x1="12" y1="28.5" x2="18" y2="28.5" stroke="#b16286" stroke-width="2" stroke-linecap="round"/>
  <circle cx="15" cy="16" r="3" fill="#b16286"/>
</svg>
