<svg width="30" height="30" viewBox="0 0 30 30" xmlns="http://www.w3.org/2000/svg">
  <path d="M11 3C9 3 6 5 6 9C6 12 8 14 11 14H13C11 14 9 12 9 10C9 8 11 6 13 6H19C21 6 23 8 23 10C23 12 21 14 19 14H18" stroke="#b16286" stroke-width="1.8" fill="none" stroke-linecap="round" stroke-linejoin="round"/>
  <path d="M19 27C21 27 24 25 24 21C24 18 22 16 19 16H17C19 16 21 18 21 20C21 22 19 24 17 24H11C9 24 7 22 7 20C7 18 9 16 11 16H12" stroke="#b16286" stroke-width="1.8" fill="none" stroke-linecap="round" stroke-linejoin="round"/>
  <circle cx="11" cy="8" r="1.5" fill="#b16286"/>
  <circle cx="19" cy="22" r="1.5" fill="#b16286"/>
</svg>
